<?xml version="1.0" encoding="UTF-8" standalone="no"?>
<!-- Created with Inkscape (http://www.inkscape.org/) -->

<svg
   xmlns:dc="http://purl.org/dc/elements/1.1/"
   xmlns:cc="http://creativecommons.org/ns#"
   xmlns:rdf="http://www.w3.org/1999/02/22-rdf-syntax-ns#"
   xmlns:svg="http://www.w3.org/2000/svg"
   xmlns="http://www.w3.org/2000/svg"
   xmlns:sodipodi="http://sodipodi.sourceforge.net/DTD/sodipodi-0.dtd"
   xmlns:inkscape="http://www.inkscape.org/namespaces/inkscape"
   width="100"
   height="100"
   id="svg3023"
   version="1.1"
   inkscape:version="0.48.5 r10040"
   sodipodi:docname="meat.svg">
  <defs
     id="defs3025" />
  <sodipodi:namedview
     id="base"
     pagecolor="#ffffff"
     bordercolor="#666666"
     borderopacity="1.0"
     inkscape:pageopacity="0.0"
     inkscape:pageshadow="2"
     inkscape:zoom="1.979899"
     inkscape:cx="46.428571"
     inkscape:cy="12.269227"
     inkscape:document-units="px"
     inkscape:current-layer="layer1"
     showgrid="false"
     inkscape:window-width="1536"
     inkscape:window-height="803"
     inkscape:window-x="-8"
     inkscape:window-y="-8"
     inkscape:window-maximized="1" />
  <metadata
     id="metadata3028">
    <rdf:RDF>
      <cc:Work
         rdf:about="">
        <dc:format>image/svg+xml</dc:format>
        <dc:type
           rdf:resource="http://purl.org/dc/dcmitype/StillImage" />
        <dc:title />
      </cc:Work>
    </rdf:RDF>
  </metadata>
  <g
     inkscape:label="Layer 1"
     inkscape:groupmode="layer"
     id="layer1">
    <path
       style="fill:none;stroke:#000000;stroke-width:1px;stroke-linecap:butt;stroke-linejoin:miter;stroke-opacity:1"
       d="m 21.213203,971.54998 c -2.183637,0.54591 -1.326144,0.50508 -2.525381,0.50508 -0.168359,0 -0.354492,-0.0753 -0.505076,0 -0.212959,0.10647 -0.292118,0.39859 -0.505076,0.50507 -0.150585,0.0753 -0.386029,-0.11905 -0.505077,0 -0.119047,0.11905 0.150585,0.42979 0,0.50508 -0.301169,0.15058 -0.708983,-0.15059 -1.010152,0 -0.150585,0.0753 0.07529,0.35449 0,0.50507 -0.10648,0.21296 -0.398597,0.29212 -0.505077,0.50508 -0.07529,0.15058 0.119048,0.38603 0,0.50508 -0.119047,0.11904 -0.386028,-0.11905 -0.505076,0 -0.119047,0.11904 0.119048,0.38603 0,0.50507 -0.119047,0.11905 -0.386028,-0.11904 -0.505076,0 -0.252538,0.25254 0.252538,1.26269 0,1.51523 -0.119048,0.11905 -0.386029,-0.11905 -0.505076,0 -0.04056,0.0406 0,2.12783 0,2.52538 0,0.33672 0,0.67344 0,1.01016 0,0.16835 0.168358,0.50507 0,0.50507 -0.168359,0 -0.168359,-0.50507 0,-0.50507 0.238095,0 0.398596,0.29211 0.505076,0.50507 0.150585,0.30117 -0.238095,0.77206 0,1.01015 0.119048,0.11905 0.386029,-0.11904 0.505076,0 0.1382,0.1382 -0.136999,1.74631 0,2.02031 0.06705,0.1341 1.381126,1.44818 1.515229,1.51523 0.150585,0.0753 0.354492,-0.0753 0.505076,0 0.212959,0.10648 0.292118,0.3986 0.505077,0.50507 0.150584,0.0753 0.386028,-0.11904 0.505076,0 0.119047,0.11905 -0.119048,0.38603 0,0.50508 1.045021,1.04502 -0.04085,-1.59693 1.010152,0.50508 0.0664,0.1328 0,1.75619 0,2.0203 0,1.34687 0,2.69374 0,4.04061 0,4.67422 0,9.85572 0,13.13202 0,0.1225 0.01624,1.499 0,1.5152 -1.04502,1.045 0.04085,-1.5969 -1.010152,0.5051 -0.150585,0.3011 0.238095,0.772 0,1.0101 -0.119048,0.1191 -0.386029,-0.119 -0.505076,0 -0.119048,0.1191 0.119047,0.3861 0,0.5051 -0.119048,0.119 -0.336718,0 -0.505077,0 0,0.3367 0.10648,0.6907 0,1.0102 -0.525501,1.5765 -0.336717,-0.1684 -1.010152,0.505 -0.119048,0.1191 0.119047,0.3861 0,0.5051 -0.119048,0.1191 -0.386029,-0.119 -0.505077,0 -0.238095,0.2381 0.238096,0.7721 0,1.0102 -0.119047,0.119 -0.386028,-0.1191 -0.505076,0 -0.119047,0.119 0.119048,0.386 0,0.505 -0.119047,0.1191 -0.386028,-0.119 -0.505076,0 -0.119048,0.1191 0.168359,0.5051 0,0.5051 -0.168359,0 0,-0.6734 0,-0.5051 0,1.5153 0,3.0305 0,4.5457 0,0.3367 0,0.6735 0,1.0102 0,0.1683 0.168359,0.505 0,0.505 -0.168359,0 0,-0.6734 0,-0.505 0,0.6734 0,1.3468 0,2.0203 0,0.1683 -0.119048,0.386 0,0.5051 0.119048,0.119 0.386029,-0.1191 0.505076,0 0.119048,0.119 -0.119047,0.386 0,0.505 0.119048,0.1191 0.386029,-0.119 0.505076,0 0.119048,0.1191 -0.07529,0.3545 0,0.5051 1.346871,2.6937 0,-1.3469 0,0 0,0.3765 0.238878,0.744 0.505077,1.0102 0.119047,0.119 0.336717,0 0.505076,0 0.168359,0 0.336718,0 0.505076,0 0.168359,0 0.336718,0 0.505077,0 0.168358,0 0.505076,-0.1684 0.505076,0 0,0.1683 -0.673435,0 -0.505076,0 0.336717,0 0.673435,0 1.010152,0 0.168359,0 0.336718,0 0.505076,0 0.168359,0 0.505077,-0.1684 0.505077,0 0,0.1683 -0.673435,0 -0.505077,0 0.505077,0 1.010153,0 1.515229,0 0.336718,0 0.673435,0 1.010153,0 0.168358,0 0.505076,-0.1684 0.505076,0 0,0.1683 -0.673435,0 -0.505076,0 0.336717,0 0.673435,0 1.010152,0 0.264115,0 1.8875,0.066 2.020305,0 2.102007,-1.051 -0.539944,0.035 0.505077,-1.0102 0.119047,-0.119 0.386028,0.1191 0.505076,0 0.119048,-0.119 -0.07529,-0.3545 0,-0.5051 0.106479,-0.2129 0.398597,-0.2921 0.505076,-0.505 0.07529,-0.1506 -0.119047,-0.3861 0,-0.5051 1.045021,-1.045 -0.04085,1.5969 1.010153,-0.5051 0.150584,-0.3012 -0.238095,-0.7721 0,-1.0102 0.119047,-0.119 0.386028,0.1191 0.505076,0 0.119048,-0.119 -0.119048,-0.386 0,-0.505 0.119048,-0.1191 0.386029,0.119 0.505076,0 0.119048,-0.1191 -0.119047,-0.3861 0,-0.5051 0.119048,-0.1191 0.386029,0.119 0.505077,0 0.119047,-0.1191 -0.119048,-0.386 0,-0.5051 0.119047,-0.119 0.386028,0.1191 0.505076,0 0.119047,-0.119 -0.119048,-0.386 0,-0.5051 0.119047,-0.119 0.386028,0.1191 0.505076,0 0.119048,-0.119 -0.119048,-0.386 0,-0.505 0.01624,-0.016 1.392734,0 1.515229,0 0.336717,0 0.673435,0 1.010152,0 0.168359,0 0.673435,0 0.505077,0 -0.336718,0 -1.34687,0 -1.010153,0 0.505076,0 1.010153,0 1.515229,0 0.336718,0 0.673435,0 1.010153,0 2.188663,0 4.377327,0 6.565991,0 0.351301,0 2.342729,0.091 2.525381,0 0.212959,-0.1065 0.292118,-0.3986 0.505077,-0.5051 0.150584,-0.075 0.341744,0.041 0.505076,0 4.273652,-1.4246 -0.559718,0.01 2.525381,-0.5051 0.684717,-0.1141 1.331505,-0.419 2.020305,-0.5051 1.655411,-0.2069 3.926064,0.2329 5.555839,0 0.527047,-0.075 0.990076,-0.4175 1.515229,-0.505 0.498204,-0.083 1.010153,0 1.515229,0 1.34687,0 2.69374,0 4.04061,0 0.122495,0 1.498986,0.016 1.515229,0 0.119048,-0.1191 -0.168359,-0.5051 0,-0.5051 0.972928,0 0.004,1.0122 1.010153,1.5152 0.318637,0.1593 2.206744,-0.1593 2.525381,0 2.102006,1.051 -0.539944,-0.035 0.505076,1.0102 0.119048,0.119 0.386029,-0.1191 0.505077,0 0.119047,0.119 -0.119048,0.386 0,0.505 0.266198,0.2662 0.653009,0.3861 1.010152,0.5051 0.159719,0.053 0.386029,-0.119 0.505076,0 0.119048,0.1191 -0.119047,0.386 0,0.5051 0.119048,0.119 0.386029,-0.1191 0.505077,0 0.119047,0.119 -0.119048,0.386 0,0.5051 0.119047,0.119 0.386028,-0.1191 0.505076,0 0.238095,0.2381 -0.238095,0.772 0,1.0101 0.119048,0.1191 0.386029,-0.119 0.505076,0 0.119048,0.1191 -0.07529,0.3545 0,0.5051 0.10648,0.213 0.292118,0.3986 0.505076,0.5051 0.150585,0.075 0.505077,-0.1684 0.505077,0 0,0.1683 -0.673435,0 -0.505077,0 0.336718,0 0.673436,0 1.010153,0 0.673435,0 1.34687,0 2.020305,0 0.168359,0 0.673435,0 0.505076,0 -0.336717,0 -1.34687,0 -1.010152,0 0.505076,0 1.010152,0 1.515229,0 0.168358,0 0.336717,0 0.505076,0 0.168359,0 0.386029,0.119 0.505076,0 0.119048,-0.1191 -0.119047,-0.3861 0,-0.5051 0.119048,-0.119 0.386029,0.119 0.505076,0 0.238096,-0.2381 -0.150584,-0.709 0,-1.0102 0.10648,-0.2129 0.336718,-0.3367 0.505077,-0.505 0.168359,-0.1684 0.336717,-0.6735 0.505076,-0.5051 0.168359,0.1684 -0.743171,0.5051 -0.505076,0.5051 0.376461,0 0.653009,-0.3861 1.010152,-0.5051 0.319439,-0.1065 0.772058,0.2381 1.010153,0 1.045021,-1.045 -1.59693,0.041 0.505076,-1.0102 0.150585,-0.075 0.386029,0.1191 0.505076,0 0.119048,-0.119 -0.119047,-0.386 0,-0.505 0.119048,-0.1191 0.386029,0.119 0.505077,0 0.119047,-0.1191 0.168358,-0.5051 0,-0.5051 -0.238096,0 -0.505077,0.7432 -0.505077,0.5051 0,-0.3765 0.386029,-0.653 0.505077,-1.0102 0.05324,-0.1597 0,-0.3367 0,-0.5051 0,-0.1683 0,-0.3367 0,-0.505 0,-0.1684 -0.168359,-0.5051 0,-0.5051 0.168358,0 0,0.6734 0,0.5051 0,-0.3368 0,-0.6735 0,-1.0102 0,-0.1683 -0.168359,-0.5051 0,-0.5051 0.168358,0 0.168358,0.5051 0,0.5051 -0.837564,0 -0.354152,-0.7083 -0.505077,-1.0101 -0.212958,-0.426 -0.797193,-0.5843 -1.010152,-1.0102 -0.743172,-1.4863 1.170051,0.665 -0.505076,-1.0101 -0.168359,-0.1684 -0.673435,-0.3368 -0.505077,-0.5051 0.168359,-0.1684 0.505077,0.7431 0.505077,0.5051 0,-0.3765 -0.386029,-0.6531 -0.505077,-1.0102 -0.106479,-0.3194 0.238096,-0.7721 0,-1.0102 -0.119047,-0.119 -0.354491,0.075 -0.505076,0 -0.212959,-0.1064 -0.336717,-0.3367 -0.505076,-0.505 -0.168359,-0.1684 -0.398597,-0.2921 -0.505077,-0.5051 -0.0664,-0.1328 0,-1.7562 0,-2.0203 0,-1.8636 0,-1.0005 0,-3.0305 0,-0.8418 0,-1.6836 0,-2.52535 0,-0.33672 0,-0.67343 0,-1.01015 0,-0.16836 -0.168358,-0.50508 0,-0.50508 0.168359,0 0.168359,0.50508 0,0.50508 -0.837563,0 -0.354151,-0.70831 -0.505076,-1.01015 -0.106479,-0.21296 -0.398597,-0.29212 -0.505076,-0.50508 -0.07529,-0.15059 0,-0.33672 0,-0.50508 0,-0.16836 0,-0.33671 0,-0.50507 0,-0.8418 0,-1.68359 0,-2.52539 0,-1.34687 0,-2.69374 0,-4.04061 0,-0.16835 0,-0.33671 0,-0.50507 0,-0.16836 -0.168359,-0.50508 0,-0.50508 0.168359,0 0,0.67344 0,0.50508 0,-0.33672 0,-0.67344 0,-1.01015 0,-0.16836 -0.07529,-0.3545 0,-0.50508 0.106479,-0.21296 0.398597,-0.29212 0.505076,-0.50508 0.150585,-0.30117 -0.238095,-0.77205 0,-1.01015 0.119048,-0.11905 0.429784,0.15059 0.505076,0 0.07389,-0.14778 0,-2.61705 0,-3.03046 0,-0.16836 -0.07529,-0.35449 0,-0.50507 0.10648,-0.21296 0.398597,-0.29212 0.505077,-0.50508 0.150584,-0.30117 -0.238095,-0.77206 0,-1.01015 0.119047,-0.11905 0.386028,0.11905 0.505076,0 0.119048,-0.11905 -0.119048,-0.38603 0,-0.50508 0.119048,-0.11905 0.386029,0.11905 0.505076,0 0.238096,-0.23809 -0.150584,-0.70898 0,-1.01015 0.10648,-0.21296 0.398597,-0.29212 0.505077,-0.50508 0.07529,-0.15058 -0.119048,-0.38603 0,-0.50507 0.119047,-0.11905 0.386028,0.11904 0.505076,0 0.119047,-0.11905 -0.119048,-0.38603 0,-0.50508 0.238095,-0.23809 0.772057,0.2381 1.010152,0 0.238096,-0.23809 -0.238095,-0.77206 0,-1.01015 0.119048,-0.11905 0.386029,0.11905 0.505077,0 0.119047,-0.11905 0,-0.33672 0,-0.50508 0,-0.26982 0.07228,-2.38083 0,-2.52538 -0.10648,-0.21296 -0.398597,-0.29212 -0.505077,-0.50508 -0.100129,-0.20025 0.103256,-1.41197 0,-1.51522 -0.119047,-0.11905 -0.386028,0.11904 -0.505076,0 -0.238095,-0.2381 0.238095,-0.77206 0,-1.01016 -0.119047,-0.11904 -0.386029,0.11905 -0.505076,0 -0.238095,-0.23809 0.150585,-0.70898 0,-1.01015 -0.558376,-1.11675 -0.313472,-0.15674 -1.010153,-0.50508 -1.248247,-0.62412 0.174342,-0.50507 -1.010152,-0.50507 -0.168359,0 -0.336718,0 -0.505077,0 -0.168358,0 -0.505076,0.16836 -0.505076,0 0,-0.16836 0.673435,0 0.505076,0 -0.336717,0 -0.673435,0 -1.010152,0 -0.505076,0 -1.010153,0 -1.515229,0 -0.168359,0 -0.505076,0.16836 -0.505076,0 0,-0.16836 0.673435,0 0.505076,0 -0.673435,0 -1.34687,0 -2.020305,0 -0.168359,0 -0.505076,0.16836 -0.505076,0 0,-0.16836 0.673435,0 0.505076,0 -0.336717,0 -0.673435,0 -1.010153,0 -0.168358,0 -0.505076,0.16836 -0.505076,0 0,-0.16836 0.673435,0 0.505076,0 -0.505076,0 -1.010152,0 -1.515228,0 -0.168359,0 -0.336718,0 -0.505077,0 -0.168358,0 -0.386028,-0.11905 -0.505076,0 -0.119047,0.11905 0.119048,0.38603 0,0.50507 -0.238095,0.2381 -0.708983,-0.15058 -1.010152,0 -2.102007,1.05101 0.539944,-0.0349 -0.505077,1.01016 -0.119047,0.11904 -0.386028,-0.11905 -0.505076,0 -0.119048,0.11904 0.119048,0.38603 0,0.50507 -0.238095,0.2381 -0.708983,-0.15058 -1.010153,0 -0.212958,0.10648 -0.292117,0.3986 -0.505076,0.50508 -0.150584,0.0753 -0.336717,0 -0.505076,0 -0.168359,0 -0.505076,0.16836 -0.505076,0 0,-0.16836 0.673435,0 0.505076,0 -0.505076,0 -1.010153,0 -1.515229,0 -1.683587,0 -3.367175,0 -5.050763,0 -0.841793,0 -1.683587,0 -2.525381,0 -0.168359,0 -0.386029,-0.11905 -0.505076,0 -0.119048,0.11905 0.150584,0.42978 0,0.50508 -0.451754,0.22587 -1.010153,0 -1.515229,0 -1.010153,0 -2.020305,0 -3.030458,0 -0.357999,0 -2.89987,-0.0653 -3.030457,0 -0.212959,0.10647 -0.2792,0.42978 -0.505077,0.50507 -0.479157,0.15972 -1.036071,-0.15972 -1.515228,0 -3.658478,1.21949 0.796307,-0.14561 -1.515229,1.01015 -0.150585,0.0753 -0.336718,0 -0.505077,0 -0.168358,0 -0.336717,0 -0.505076,0 -1.010152,0 -2.020305,0 -3.030457,0 -3.367176,0 -6.734351,0 -10.101526,0 -1.178511,0 -2.357023,0 -3.535534,0 -0.336717,0 -0.673435,0 -1.010152,0 -0.168359,0 -0.673435,0 -0.505077,0 0.336718,0 1.34687,0 1.010153,0 -0.505076,0 -1.010153,0 -1.515229,0 -0.168359,0 -0.364993,0.0934 -0.505076,0 -0.896969,-0.59797 -1.683588,-1.34687 -2.525382,-2.0203 z"
       id="path3043"
       inkscape:connector-curvature="0" />
    <path
       style="fill:none;stroke:#000000;stroke-width:1px;stroke-linecap:butt;stroke-linejoin:miter;stroke-opacity:1"
       d="m 75.256365,988.72257 c 6.263831,-3.13191 -0.495694,-0.12861 3.030457,-1.01015 0.365222,-0.0913 0.644931,-0.41377 1.010153,-0.50508 0.326664,-0.0817 0.690714,0.10648 1.010152,0 0.225877,-0.0753 0.27409,-0.44733 0.505077,-0.50507 0.276448,-0.0691 3.292153,0.12169 3.535534,0 0.624123,-0.31206 0.505076,-0.48765 0.505076,-1.01016 0,-0.16835 0,-0.67343 0,-0.50507 0,0.33672 0,1.34687 0,1.01015 0,-0.50508 0,-1.01015 0,-1.51523 0,-0.16836 0,-0.33672 0,-0.50507 0,-0.16836 -0.07529,-0.3545 0,-0.50508 0.212959,-0.42592 0.797194,-0.58424 1.010152,-1.01015 0.07529,-0.15059 -0.119047,-0.38603 0,-0.50508 0.119048,-0.11905 0.386029,0.11905 0.505077,0 0.119047,-0.11905 -0.119048,-0.38603 0,-0.50508 0.02289,-0.0229 2.287239,0 2.525381,0 0.351301,0 2.342729,-0.0913 2.525381,0 0.212959,0.10648 0.398597,0.29212 0.505077,0.50508 0.07529,0.15059 0,0.33672 0,0.50508 0,0.16836 0,0.33671 0,0.50507 0,0.8418 0,1.68359 0,2.52538 0,1.34687 0,2.69374 0,4.04061 0,0.16836 0,0.33672 0,0.50508 0,0.16836 0.168358,0.50508 0,0.50508 -0.168359,0 0.119047,-0.62413 0,-0.50508 -0.266199,0.2662 -0.238878,0.74396 -0.505077,1.01015 -0.119047,0.11905 -0.386028,-0.11904 -0.505076,0 -0.119047,0.11905 0.119048,0.38603 0,0.50508 -0.177291,0.17729 -2.176508,-0.17444 -2.525381,0 -0.212959,0.10648 -0.292118,0.3986 -0.505077,0.50508 -0.150584,0.0753 -0.673435,0 -0.505076,0 0.336718,0 0.673435,0 1.010153,0 0.168359,0 -0.673435,0 -0.505077,0 1.010153,0 2.020306,0 3.030458,0 0.168359,0 0.505076,-0.16836 0.505076,0 0,0.16835 -0.673435,0 -0.505076,0 0.120022,0 1.907102,-0.0566 2.020305,0 2.102007,1.051 -0.539944,-0.0349 0.505076,1.01015 0.119048,0.11905 0.386029,-0.11905 0.505077,0 0.119047,0.11905 -0.119048,0.38603 0,0.50507 0.119047,0.11905 0.386028,-0.11904 0.505076,0 0.238095,0.2381 -0.150585,0.70899 0,1.01016 0.106479,0.21296 0.398597,0.29211 0.505076,0.50507 0.07529,0.15059 0,0.33672 0,0.50508 0,1.01015 0,2.02031 0,3.03046 0,0.16836 0.119048,0.38603 0,0.50507 -0.119047,0.11905 -0.386028,-0.11904 -0.505076,0 -0.119048,0.11905 0.119048,0.38603 0,0.50508 -0.01624,0.0162 -1.392734,0 -1.515229,0 -0.168359,0 -0.336717,0 -0.505076,0 -0.168359,0 -0.386029,-0.11905 -0.505076,0 -0.119048,0.11905 0.119047,0.38605 0,0.50505 -0.119048,0.1191 -0.336718,0 -0.505077,0 -0.168358,0 -0.336717,0 -0.505076,0 -1.34687,0 -2.69374,0 -4.04061,0 -0.168359,0 -0.336718,0 -0.505076,0 -0.168359,0 -0.386029,0.1191 -0.505077,0 -0.119047,-0.119 0.07529,-0.35447 0,-0.50505 -0.106479,-0.21296 -0.398596,-0.29212 -0.505076,-0.50508 -0.100129,-0.20025 0.103256,-1.41197 0,-1.51522 -0.119047,-0.11905 -0.505076,0.16835 -0.505076,0 0,-0.20733 2.626839,0.53889 -0.505076,-0.50508 -0.284964,-0.095 -1.18334,0 -1.515229,0 -1.34687,0 -2.69374,0 -4.04061,0 -0.336718,0 -0.673435,0 -1.010153,0 -0.168359,0 -0.505076,0.16836 -0.505076,0 0,-0.16836 0.673435,0 0.505076,0 -0.0049,0 -1.26013,0 -1.515229,0"
       id="path3045"
       inkscape:connector-curvature="0" />
    <path
       style="fill:none;stroke:#000000;stroke-width:1px;stroke-linecap:butt;stroke-linejoin:miter;stroke-opacity:1"
       d="m 18.687822,991.24795 c -0.05492,-0.23871 -3.544906,0.16524 -4.04061,0 -0.357143,-0.11904 -0.65301,-0.38603 -1.010153,-0.50507 -0.09713,-0.0324 -1.515228,0.0259 -1.515228,0 0,-0.16836 0.505076,0.16836 0.505076,0 0,-1.05101 -0.708303,-0.20323 -1.010153,-0.50508 -0.119047,-0.11905 0.119048,-0.38603 0,-0.50508 -0.119047,-0.11904 -0.354491,0.0753 -0.505076,0 -0.212959,-0.10647 -0.336718,-0.33671 -0.505076,-0.50507 -0.168359,-0.16836 -0.398597,-0.29212 -0.505077,-0.50508 -0.07529,-0.15058 0.119048,-0.38603 0,-0.50507 -0.1190472,-0.11905 -0.3860282,0.11904 -0.5050758,0 -0.1190476,-0.11905 0.1190476,-0.38603 0,-0.50508 -0.1190476,-0.11905 -0.3367175,0 -0.5050763,0 -1.1785113,0 -2.3570226,0 -3.5355339,0 -0.1683588,0 -0.3367175,0 -0.5050763,0 -0.1683587,0 -0.5050762,0.16836 -0.5050762,0 0,-0.16836 0.5050762,-0.16836 0.5050762,0 0,0.16286 -0.8698334,0.72951 -1.0101525,1.01015 -0.076856,0.15371 0,1.28777 0,1.51523 0,1.17851 0,2.35702 0,3.53553 0,0.16836 0,0.33672 0,0.50508 0,0.16836 0.1683587,0.50508 0,0.50508 -0.1683588,0 0,-0.67344 0,-0.50508 0,0.33672 -0.1505847,0.70898 0,1.01015 0.075292,0.15059 0.3544916,-0.0753 0.5050763,0 0.4259177,0.21296 0.5842348,0.7972 1.0101525,1.01016 0.1505847,0.0753 0.3860287,-0.11905 0.5050763,0 1.0450208,1.04502 -1.5969302,-0.0408 0.5050762,1.01015 0.1826525,0.0913 2.1740807,0 2.5253814,0 0.1683588,0 0.3860287,-0.11905 0.5050763,0 0.1190476,0.11905 -0.075292,0.35449 0,0.50508 0.1064794,0.21295 0.3985968,0.29211 0.5050758,0.50507 0.07529,0.15059 0.168359,0.50508 0,0.50508 -0.1683583,0 0,-0.67344 0,-0.50508 0,0.33672 0.150585,0.70898 0,1.01015 -0.07529,0.15059 -0.3367171,0 -0.5050758,0 -0.673435,0 -1.3468701,0 -2.0203051,0 -0.1683588,0 -0.3367175,0 -0.5050763,0 -0.1683587,0 -0.3860286,-0.11904 -0.5050763,0 -0.1190476,0.11905 0.1190477,0.38603 0,0.50508 -0.1190476,0.11905 -0.3860286,-0.11905 -0.5050762,0 -0.1190476,0.11905 0.1190476,0.38605 0,0.50505 -0.1190476,0.1191 -0.3860287,-0.119 -0.5050763,0 -1.0450208,1.045 1.5969302,-0.041 -0.5050763,1.0102 -1.34687,0 0.1683588,-0.1684 -0.5050762,0.5051 -0.1190477,0.119 -0.3860287,-0.1191 -0.5050763,0 -0.020325,0.02 0,1.8348 0,2.0203 0,0.1683 0,0.3367 0,0.505 0,0.1684 -0.1190476,0.3861 0,0.5051 0.2380952,0.2381 0.7089832,-0.1506 1.0101525,0 0.2129589,0.1065 0.2921174,0.3986 0.5050763,0.5051 0.1505847,0.075 0.5050763,-0.1684 0.5050763,0 0,0.1683 -0.6734351,0 -0.5050763,0 0.5050763,0 1.0101525,0 1.5152288,0 0.3367175,0 0.6734351,0 1.0101526,0 0.1683587,0 0.673435,0 0.5050762,0 -0.3367175,0 -1.34687,0 -1.0101525,0 0.5050763,0 1.0101525,0 1.5152288,0 0.1683588,0 0.5050763,-0.1684 0.5050763,0 0,0.1683 -0.673435,0 -0.5050763,0 0.1996631,0 2.3096721,0.1078 2.5253811,0 0.212959,-0.1065 0.743172,-0.5051 0.505077,-0.5051 -0.376462,0 -1.276352,0.7713 -1.010153,0.5051 0.429232,-0.4292 0.972288,-0.7387 1.515229,-1.0102 0.150584,-0.075 0.386028,0.1191 0.505076,0 0.119048,-0.119 -0.119048,-0.386 0,-0.505 0.119048,-0.1191 0.386029,0.119 0.505076,0 0.119048,-0.1191 -0.07529,-0.3545 0,-0.5051 0.558376,-1.1168 0.313472,-0.1568 1.010153,-0.5051 0.425918,-0.213 0.584235,-0.7972 1.010152,-1.0101 0.150585,-0.075 0.505077,-0.1684 0.505077,0 0,0.1683 -0.624124,0.119 -0.505077,0 0.266199,-0.2662 0.65301,-0.3861 1.010153,-0.5051 0.159719,-0.053 0.336718,0 0.505076,0 0.168359,0 0.505077,-0.1684 0.505077,0 0,0.1683 -0.673435,0 -0.505077,0 0.505077,0 1.010153,0 1.515229,0 0.168359,0 0.673435,0 0.505076,0 -1.138442,0 -1.367251,0 -0.505076,0"
       id="path3047"
       inkscape:connector-curvature="0" />
    <path
       style="fill:#782121"
       d="m 16.073581,1021.1919 c -0.583185,-0.7732 -0.858723,-2.0972 -0.858723,-4.1264 0,-2.4481 0.217495,-3.2227 1.2037,-4.2868 0.662035,-0.7144 1.513012,-1.9976 1.891061,-2.8517 0.37805,-0.854 0.859164,-1.5528 1.069144,-1.5528 0.451224,0 0.522607,-21.77379 0.07521,-22.9397 -0.168616,-0.4394 -0.7016,-0.79892 -1.18441,-0.79892 -1.258142,0 -2.301245,-1.41629 -3.027976,-4.11129 -0.546276,-2.0258 -0.516552,-2.58671 0.219252,-4.1373 1.525584,-3.21493 4.7855,-4.57584 6.926617,-2.89164 1.235216,0.97162 1.990264,1.03871 11.691355,1.03871 5.848789,0 10.497444,-0.20482 10.661167,-0.46973 0.381266,-0.6169 3.788386,-0.97603 13.845505,-1.4594 7.344674,-0.353 8.348028,-0.50716 8.986207,-1.3807 0.605733,-0.82912 1.46705,-1.01075 5.492604,-1.15825 l 4.774213,-0.17492 1.013057,2.36337 c 1.250049,2.91624 1.271863,4.00346 0.103611,5.16414 -1.66665,1.65586 -2.683258,3.71399 -3.267853,6.61579 -0.972484,4.82718 -0.343048,22.91824 0.846846,24.33984 1.323411,1.581 3.330458,5.5263 3.330458,6.5467 0,0.6815 -0.639594,1.4408 -1.780818,2.1142 -0.979449,0.5779 -2.010224,1.4793 -2.290612,2.0033 -0.885495,1.6545 -3.423402,1.2387 -5.36289,-0.8787 -0.922547,-1.0072 -1.677358,-2.0057 -1.677358,-2.2188 0,-0.5116 -1.323219,-1.0007 -2.706982,-1.0007 -0.610021,0 -1.513198,-0.472 -2.00706,-1.0487 -0.614986,-0.7183 -1.088025,-0.895 -1.501208,-0.5609 -0.331804,0.2684 -3.898903,0.6545 -7.926886,0.8582 -4.027983,0.2036 -8.527938,0.6833 -9.999899,1.0659 -1.595408,0.4147 -5.280011,0.6956 -9.123147,0.6956 -6.404108,0 -6.455852,0.01 -7.804039,1.4166 -0.746453,0.7791 -1.357186,1.6883 -1.357186,2.0203 0,0.3321 -0.188878,0.6037 -0.419729,0.6037 -0.23085,0 -0.713805,0.5495 -1.073232,1.2211 -0.602509,1.1258 -0.93628,1.2171 -4.277387,1.1697 -3.135959,-0.044 -3.739503,-0.2047 -4.482607,-1.1898 l 0,0 z"
       id="path3049"
       inkscape:connector-curvature="0" />
    <path
       style="fill:none;stroke:#000000;stroke-width:1px;stroke-linecap:butt;stroke-linejoin:miter;stroke-opacity:1"
       d="m 23.207786,26.511395 c -2.183637,0.54591 -1.326144,0.50508 -2.525381,0.50508 -0.168359,0 -0.354492,-0.0753 -0.505076,0 -0.212959,0.10647 -0.292118,0.39859 -0.505076,0.50507 -0.150585,0.0753 -0.386029,-0.11905 -0.505077,0 -0.119047,0.11905 0.150585,0.42979 0,0.50508 -0.301169,0.15058 -0.708983,-0.15059 -1.010152,0 -0.150585,0.0753 0.07529,0.35449 0,0.50507 -0.10648,0.21296 -0.398597,0.29212 -0.505077,0.50508 -0.07529,0.15058 0.119048,0.38603 0,0.50508 -0.119047,0.11904 -0.386028,-0.11905 -0.505076,0 -0.119047,0.11904 0.119048,0.38603 0,0.50507 -0.119047,0.11905 -0.386028,-0.11904 -0.505076,0 -0.252538,0.25254 0.252538,1.26269 0,1.51523 -0.119048,0.11905 -0.386029,-0.11905 -0.505076,0 -0.04056,0.0406 0,2.12783 0,2.52538 0,0.33672 0,0.67344 0,1.01016 0,0.16835 0.168358,0.50507 0,0.50507 -0.168359,0 -0.168359,-0.50507 0,-0.50507 0.238095,0 0.398596,0.29211 0.505076,0.50507 0.150585,0.30117 -0.238095,0.77206 0,1.01015 0.119048,0.11905 0.386029,-0.11904 0.505076,0 0.1382,0.1382 -0.136999,1.74631 0,2.02031 0.06705,0.1341 1.381126,1.44818 1.515229,1.51523 0.150585,0.0753 0.354492,-0.0753 0.505076,0 0.212959,0.10648 0.292118,0.3986 0.505077,0.50507 0.150584,0.0753 0.386028,-0.11904 0.505076,0 0.119047,0.11905 -0.119048,0.38603 0,0.50508 1.045021,1.04502 -0.04085,-1.59693 1.010152,0.50508 0.0664,0.1328 0,1.75619 0,2.0203 0,1.34687 0,2.69374 0,4.04061 0,4.67422 0,9.85572 0,13.13202 0,0.1225 0.01624,1.499 0,1.5152 -1.04502,1.045 0.04085,-1.5969 -1.010152,0.5051 -0.150585,0.3011 0.238095,0.772 0,1.0101 -0.119048,0.1191 -0.386029,-0.119 -0.505076,0 -0.119048,0.1191 0.119047,0.3861 0,0.5051 -0.119048,0.119 -0.336718,0 -0.505077,0 0,0.3367 0.10648,0.6907 0,1.0102 -0.525501,1.5765 -0.336717,-0.1684 -1.010152,0.505 -0.119048,0.1191 0.119047,0.3861 0,0.5051 -0.119048,0.1191 -0.386029,-0.119 -0.505077,0 -0.238095,0.2381 0.238096,0.7721 0,1.0102 -0.119047,0.119 -0.386028,-0.1191 -0.505076,0 -0.119047,0.119 0.119048,0.386 0,0.505 -0.119047,0.1191 -0.386028,-0.119 -0.505076,0 -0.119048,0.1191 0.168359,0.5051 0,0.5051 -0.168359,0 0,-0.6734 0,-0.5051 0,1.5153 0,3.0305 0,4.5457 0,0.3367 0,0.6735 0,1.0102 0,0.1683 0.168359,0.505 0,0.505 -0.168359,0 0,-0.6734 0,-0.505 0,0.6734 0,1.3468 0,2.0203 0,0.1683 -0.119048,0.386 0,0.5051 0.119048,0.119 0.386029,-0.1191 0.505076,0 0.119048,0.119 -0.119047,0.386 0,0.505 0.119048,0.1191 0.386029,-0.119 0.505076,0 0.119048,0.1191 -0.07529,0.3545 0,0.5051 1.346871,2.6937 0,-1.3469 0,0 0,0.3765 0.238878,0.744 0.505077,1.0102 0.119047,0.119 0.336717,0 0.505076,0 0.168359,0 0.336718,0 0.505076,0 0.168359,0 0.336718,0 0.505077,0 0.168358,0 0.505076,-0.1684 0.505076,0 0,0.1683 -0.673435,0 -0.505076,0 0.336717,0 0.673435,0 1.010152,0 0.168359,0 0.336718,0 0.505076,0 0.168359,0 0.505077,-0.1684 0.505077,0 0,0.1683 -0.673435,0 -0.505077,0 0.505077,0 1.010153,0 1.515229,0 0.336718,0 0.673435,0 1.010153,0 0.168358,0 0.505076,-0.1684 0.505076,0 0,0.1683 -0.673435,0 -0.505076,0 0.336717,0 0.673435,0 1.010152,0 0.264115,0 1.8875,0.066 2.020305,0 2.102007,-1.051 -0.539944,0.035 0.505077,-1.0102 0.119047,-0.119 0.386028,0.1191 0.505076,0 0.119048,-0.119 -0.07529,-0.3545 0,-0.5051 0.106479,-0.2129 0.398597,-0.2921 0.505076,-0.505 0.07529,-0.1506 -0.119047,-0.3861 0,-0.5051 1.045021,-1.045 -0.04085,1.5969 1.010153,-0.5051 0.150584,-0.3012 -0.238095,-0.7721 0,-1.0102 0.119047,-0.119 0.386028,0.1191 0.505076,0 0.119048,-0.119 -0.119048,-0.386 0,-0.505 0.119048,-0.1191 0.386029,0.119 0.505076,0 0.119048,-0.1191 -0.119047,-0.3861 0,-0.5051 0.119048,-0.1191 0.386029,0.119 0.505077,0 0.119047,-0.1191 -0.119048,-0.386 0,-0.5051 0.119047,-0.119 0.386028,0.1191 0.505076,0 0.119047,-0.119 -0.119048,-0.386 0,-0.5051 0.119047,-0.119 0.386028,0.1191 0.505076,0 0.119048,-0.119 -0.119048,-0.386 0,-0.505 0.01624,-0.016 1.392734,0 1.515229,0 0.336717,0 0.673435,0 1.010152,0 0.168359,0 0.673435,0 0.505077,0 -0.336718,0 -1.34687,0 -1.010153,0 0.505076,0 1.010153,0 1.515229,0 0.336718,0 0.673435,0 1.010153,0 2.188663,0 4.377327,0 6.565991,0 0.351301,0 2.342729,0.091 2.525381,0 0.212959,-0.1065 0.292118,-0.3986 0.505077,-0.5051 0.150584,-0.075 0.341744,0.041 0.505076,0 4.273652,-1.4246 -0.559718,0.01 2.525381,-0.5051 0.684717,-0.1141 1.331505,-0.419 2.020305,-0.5051 1.655411,-0.2069 3.926064,0.2329 5.555839,0 0.527047,-0.075 0.990076,-0.4175 1.515229,-0.505 0.498204,-0.083 1.010153,0 1.515229,0 1.34687,0 2.69374,0 4.04061,0 0.122495,0 1.498986,0.016 1.515229,0 0.119048,-0.1191 -0.168359,-0.5051 0,-0.5051 0.972928,0 0.004,1.0122 1.010153,1.5152 0.318637,0.1593 2.206744,-0.1593 2.525381,0 2.102006,1.051 -0.539944,-0.035 0.505076,1.0102 0.119048,0.119 0.386029,-0.1191 0.505077,0 0.119047,0.119 -0.119048,0.386 0,0.505 0.266198,0.2662 0.653009,0.3861 1.010152,0.5051 0.159719,0.053 0.386029,-0.119 0.505076,0 0.119048,0.1191 -0.119047,0.386 0,0.5051 0.119048,0.119 0.386029,-0.1191 0.505077,0 0.119047,0.119 -0.119048,0.386 0,0.5051 0.119047,0.119 0.386028,-0.1191 0.505076,0 0.238095,0.2381 -0.238095,0.772 0,1.0101 0.119048,0.1191 0.386029,-0.119 0.505076,0 0.119048,0.1191 -0.07529,0.3545 0,0.5051 0.10648,0.213 0.292118,0.3986 0.505076,0.5051 0.150585,0.075 0.505077,-0.1684 0.505077,0 0,0.1683 -0.673435,0 -0.505077,0 0.336718,0 0.673436,0 1.010153,0 0.673435,0 1.34687,0 2.020305,0 0.168359,0 0.673435,0 0.505076,0 -0.336717,0 -1.34687,0 -1.010152,0 0.505076,0 1.010152,0 1.515229,0 0.168358,0 0.336717,0 0.505076,0 0.168359,0 0.386029,0.119 0.505076,0 0.119048,-0.1191 -0.119047,-0.3861 0,-0.5051 0.119048,-0.119 0.386029,0.119 0.505076,0 0.238096,-0.2381 -0.150584,-0.709 0,-1.0102 0.10648,-0.2129 0.336718,-0.3367 0.505077,-0.505 0.168359,-0.1684 0.336717,-0.6735 0.505076,-0.5051 0.168359,0.1684 -0.743171,0.5051 -0.505076,0.5051 0.376461,0 0.653009,-0.3861 1.010152,-0.5051 0.319439,-0.1065 0.772058,0.2381 1.010153,0 1.045021,-1.045 -1.59693,0.041 0.505076,-1.0102 0.150585,-0.075 0.386029,0.1191 0.505076,0 0.119048,-0.119 -0.119047,-0.386 0,-0.505 0.119048,-0.1191 0.386029,0.119 0.505077,0 0.119047,-0.1191 0.168358,-0.5051 0,-0.5051 -0.238096,0 -0.505077,0.7432 -0.505077,0.5051 0,-0.3765 0.386029,-0.653 0.505077,-1.0102 0.05324,-0.1597 0,-0.3367 0,-0.5051 0,-0.1683 0,-0.3367 0,-0.505 0,-0.1684 -0.168359,-0.5051 0,-0.5051 0.168358,0 0,0.6734 0,0.5051 0,-0.3368 0,-0.6735 0,-1.0102 0,-0.1683 -0.168359,-0.5051 0,-0.5051 0.168358,0 0.168358,0.5051 0,0.5051 -0.837564,0 -0.354152,-0.7083 -0.505077,-1.0101 -0.212958,-0.426 -0.797193,-0.5843 -1.010152,-1.0102 -0.743172,-1.4863 1.170051,0.665 -0.505076,-1.0101 -0.168359,-0.1684 -0.673435,-0.3368 -0.505077,-0.5051 0.168359,-0.1684 0.505077,0.7431 0.505077,0.5051 0,-0.3765 -0.386029,-0.6531 -0.505077,-1.0102 -0.106479,-0.3194 0.238096,-0.7721 0,-1.0102 -0.119047,-0.119 -0.354491,0.075 -0.505076,0 -0.212959,-0.1064 -0.336717,-0.3367 -0.505076,-0.505 -0.168359,-0.1684 -0.398597,-0.2921 -0.505077,-0.5051 -0.0664,-0.1328 0,-1.7562 0,-2.0203 0,-1.8636 0,-1.0005 0,-3.0305 0,-0.8418 0,-1.6836 0,-2.52535 0,-0.33672 0,-0.67343 0,-1.01015 0,-0.16836 -0.168358,-0.50508 0,-0.50508 0.168359,0 0.168359,0.50508 0,0.50508 -0.837563,0 -0.354151,-0.70831 -0.505076,-1.01015 -0.106479,-0.21296 -0.398597,-0.29212 -0.505076,-0.50508 -0.07529,-0.15059 0,-0.33672 0,-0.50508 0,-0.16836 0,-0.33671 0,-0.50507 0,-0.8418 0,-1.68359 0,-2.52539 0,-1.34687 0,-2.69374 0,-4.04061 0,-0.16835 0,-0.33671 0,-0.50507 0,-0.16836 -0.168359,-0.50508 0,-0.50508 0.168359,0 0,0.67344 0,0.50508 0,-0.33672 0,-0.67344 0,-1.01015 0,-0.16836 -0.07529,-0.3545 0,-0.50508 0.106479,-0.21296 0.398597,-0.29212 0.505076,-0.50508 0.150585,-0.30117 -0.238095,-0.77205 0,-1.01015 0.119048,-0.11905 0.429784,0.15059 0.505076,0 0.07389,-0.14778 0,-2.61705 0,-3.03046 0,-0.16836 -0.07529,-0.35449 0,-0.50507 0.10648,-0.21296 0.398597,-0.29212 0.505077,-0.50508 0.150584,-0.30117 -0.238095,-0.77206 0,-1.01015 0.119047,-0.11905 0.386028,0.11905 0.505076,0 0.119048,-0.11905 -0.119048,-0.38603 0,-0.50508 0.119048,-0.11905 0.386029,0.11905 0.505076,0 0.238096,-0.23809 -0.150584,-0.70898 0,-1.01015 0.10648,-0.21296 0.398597,-0.29212 0.505077,-0.50508 0.07529,-0.15058 -0.119048,-0.38603 0,-0.50507 0.119047,-0.11905 0.386028,0.11904 0.505076,0 0.119047,-0.11905 -0.119048,-0.38603 0,-0.50508 0.238095,-0.23809 0.772057,0.2381 1.010152,0 0.238096,-0.23809 -0.238095,-0.77206 0,-1.01015 0.119048,-0.11905 0.386029,0.11905 0.505077,0 0.119047,-0.11905 0,-0.33672 0,-0.50508 0,-0.26982 0.07228,-2.38083 0,-2.52538 -0.10648,-0.21296 -0.398597,-0.29212 -0.505077,-0.50508 -0.100129,-0.20025 0.103256,-1.41197 0,-1.51522 -0.119047,-0.11905 -0.386028,0.11904 -0.505076,0 -0.238095,-0.2381 0.238095,-0.77206 0,-1.01016 -0.119047,-0.11904 -0.386029,0.11905 -0.505076,0 -0.238095,-0.23809 0.150585,-0.70898 0,-1.01015 -0.558376,-1.11675 -0.313472,-0.15674 -1.010153,-0.50508 -1.248247,-0.62412 0.174342,-0.50507 -1.010152,-0.50507 -0.168359,0 -0.336718,0 -0.505077,0 -0.168358,0 -0.505076,0.16836 -0.505076,0 0,-0.16836 0.673435,0 0.505076,0 -0.336717,0 -0.673435,0 -1.010152,0 -0.505076,0 -1.010153,0 -1.515229,0 -0.168359,0 -0.505076,0.16836 -0.505076,0 0,-0.16836 0.673435,0 0.505076,0 -0.673435,0 -1.34687,0 -2.020305,0 -0.168359,0 -0.505076,0.16836 -0.505076,0 0,-0.16836 0.673435,0 0.505076,0 -0.336717,0 -0.673435,0 -1.010153,0 -0.168358,0 -0.505076,0.16836 -0.505076,0 0,-0.16836 0.673435,0 0.505076,0 -0.505076,0 -1.010152,0 -1.515228,0 -0.168359,0 -0.336718,0 -0.505077,0 -0.168358,0 -0.386028,-0.11905 -0.505076,0 -0.119047,0.11905 0.119048,0.38603 0,0.50507 -0.238095,0.2381 -0.708983,-0.15058 -1.010152,0 -2.102007,1.05101 0.539944,-0.0349 -0.505077,1.01016 -0.119047,0.11904 -0.386028,-0.11905 -0.505076,0 -0.119048,0.11904 0.119048,0.38603 0,0.50507 -0.238095,0.2381 -0.708983,-0.15058 -1.010153,0 -0.212958,0.10648 -0.292117,0.3986 -0.505076,0.50508 -0.150584,0.0753 -0.336717,0 -0.505076,0 -0.168359,0 -0.505076,0.16836 -0.505076,0 0,-0.16836 0.673435,0 0.505076,0 -0.505076,0 -1.010153,0 -1.515229,0 -1.683587,0 -3.367175,0 -5.050763,0 -0.841793,0 -1.683587,0 -2.525381,0 -0.168359,0 -0.386029,-0.11905 -0.505076,0 -0.119048,0.11905 0.150584,0.42978 0,0.50508 -0.451754,0.22587 -1.010153,0 -1.515229,0 -1.010153,0 -2.020305,0 -3.030458,0 -0.357999,0 -2.89987,-0.0653 -3.030457,0 -0.212959,0.10647 -0.2792,0.42978 -0.505077,0.50507 -0.479157,0.15972 -1.036071,-0.15972 -1.515228,0 -3.658478,1.21949 0.796307,-0.14561 -1.515229,1.01015 -0.150585,0.0753 -0.336718,0 -0.505077,0 -0.168358,0 -0.336717,0 -0.505076,0 -1.010152,0 -2.020305,0 -3.030457,0 -3.367176,0 -6.734351,0 -10.101526,0 -1.178511,0 -2.357023,0 -3.535534,0 -0.336717,0 -0.673435,0 -1.010152,0 -0.168359,0 -0.673435,0 -0.505077,0 0.336718,0 1.34687,0 1.010153,0 -0.505076,0 -1.010153,0 -1.515229,0 -0.168359,0 -0.364993,0.0934 -0.505076,0 -0.896969,-0.59797 -1.683588,-1.34687 -2.525382,-2.0203 z"
       id="path3043-1"
       inkscape:connector-curvature="0" />
    <path
       style="fill:none;stroke:#000000;stroke-width:1px;stroke-linecap:butt;stroke-linejoin:miter;stroke-opacity:1"
       d="m 20.682405,46.209365 c -0.05492,-0.23871 -3.544906,0.16524 -4.04061,0 -0.357143,-0.11904 -0.65301,-0.38603 -1.010153,-0.50507 -0.09713,-0.0324 -1.515228,0.0259 -1.515228,0 0,-0.16836 0.505076,0.16836 0.505076,0 0,-1.05101 -0.708303,-0.20323 -1.010153,-0.50508 -0.119047,-0.11905 0.119048,-0.38603 0,-0.50508 -0.119047,-0.11904 -0.354491,0.0753 -0.505076,0 -0.212959,-0.10647 -0.336718,-0.33671 -0.505076,-0.50507 -0.168359,-0.16836 -0.398597,-0.29212 -0.505077,-0.50508 -0.07529,-0.15058 0.119048,-0.38603 0,-0.50507 -0.119047,-0.11905 -0.386028,0.11904 -0.505076,0 -0.119047,-0.11905 0.119048,-0.38603 0,-0.50508 -0.119047,-0.11905 -0.336717,0 -0.505076,0 -1.1785109,0 -2.3570219,0 -3.5355339,0 -0.168359,0 -0.336717,0 -0.505076,0 -0.168359,0 -0.505076,0.16836 -0.505076,0 0,-0.16836 0.505076,-0.16836 0.505076,0 0,0.16286 -0.869833,0.72951 -1.010153,1.01015 -0.07686,0.15371 0,1.28777 0,1.51523 0,1.17851 0,2.35702 0,3.53553 0,0.16836 0,0.33672 0,0.50508 0,0.16836 0.168359,0.50508 0,0.50508 -0.168358,0 0,-0.67344 0,-0.50508 0,0.33672 -0.150584,0.70898 0,1.01015 0.07529,0.15059 0.354492,-0.0753 0.505077,0 0.425917,0.21296 0.584235,0.7972 1.010152,1.01016 0.150585,0.0753 0.386029,-0.11905 0.505077,0 1.04502,1.04502 -1.596931,-0.0408 0.505076,1.01015 0.182652,0.0913 2.1740799,0 2.5253809,0 0.168359,0 0.386029,-0.11905 0.505076,0 0.119048,0.11905 -0.07529,0.35449 0,0.50508 0.10648,0.21295 0.398597,0.29211 0.505076,0.50507 0.07529,0.15059 0.168359,0.50508 0,0.50508 -0.168358,0 0,-0.67344 0,-0.50508 0,0.33672 0.150585,0.70898 0,1.01015 -0.07529,0.15059 -0.336717,0 -0.505076,0 -0.673435,0 -1.34687,0 -2.0203049,0 -0.168358,0 -0.336717,0 -0.505076,0 -0.168359,0 -0.386029,-0.11904 -0.505076,0 -0.119048,0.11905 0.119047,0.38603 0,0.50508 -0.119048,0.11905 -0.386029,-0.11905 -0.505076,0 -0.119048,0.11905 0.119047,0.38605 0,0.50505 -0.119048,0.1191 -0.386029,-0.119 -0.505077,0 -1.045021,1.045 1.59693,-0.041 -0.505076,1.0102 -1.34687,0 0.168359,-0.1684 -0.505076,0.5051 -0.119048,0.119 -0.386029,-0.1191 -0.505077,0 -0.02032,0.02 0,1.8348 0,2.0203 0,0.1683 0,0.3367 0,0.505 0,0.1684 -0.119047,0.3861 0,0.5051 0.238096,0.2381 0.708984,-0.1506 1.010153,0 0.212959,0.1065 0.292117,0.3986 0.505076,0.5051 0.150585,0.075 0.505077,-0.1684 0.505077,0 0,0.1683 -0.673436,0 -0.505077,0 0.505077,0 1.010153,0 1.515229,0 0.336718,0 0.673435,0 1.0101529,0 0.168358,0 0.673435,0 0.505076,0 -0.336718,0 -1.3468699,0 -1.0101529,0 0.5050769,0 1.0101529,0 1.5152289,0 0.168359,0 0.505076,-0.1684 0.505076,0 0,0.1683 -0.673435,0 -0.505076,0 0.199663,0 2.309672,0.1078 2.525381,0 0.212959,-0.1065 0.743172,-0.5051 0.505077,-0.5051 -0.376462,0 -1.276352,0.7713 -1.010153,0.5051 0.429232,-0.4292 0.972288,-0.7387 1.515229,-1.0102 0.150584,-0.075 0.386028,0.1191 0.505076,0 0.119048,-0.119 -0.119048,-0.386 0,-0.505 0.119048,-0.1191 0.386029,0.119 0.505076,0 0.119048,-0.1191 -0.07529,-0.3545 0,-0.5051 0.558376,-1.1168 0.313472,-0.1568 1.010153,-0.5051 0.425918,-0.213 0.584235,-0.7972 1.010152,-1.0101 0.150585,-0.075 0.505077,-0.1684 0.505077,0 0,0.1683 -0.624124,0.119 -0.505077,0 0.266199,-0.2662 0.65301,-0.3861 1.010153,-0.5051 0.159719,-0.053 0.336718,0 0.505076,0 0.168359,0 0.505077,-0.1684 0.505077,0 0,0.1683 -0.673435,0 -0.505077,0 0.505077,0 1.010153,0 1.515229,0 0.168359,0 0.673435,0 0.505076,0 -1.138442,0 -1.367251,0 -0.505076,0"
       id="path3047-7"
       inkscape:connector-curvature="0" />
    <path
       style="fill:#782121"
       d="m 18.068164,76.153315 c -0.583185,-0.7732 -0.858723,-2.0972 -0.858723,-4.1264 0,-2.4481 0.217495,-3.2227 1.2037,-4.2868 0.662035,-0.7144 1.513012,-1.9976 1.891061,-2.8517 0.37805,-0.854 0.859164,-1.5528 1.069144,-1.5528 0.451224,0 0.522607,-21.77379 0.07521,-22.9397 -0.168616,-0.4394 -0.7016,-0.79892 -1.18441,-0.79892 -1.258142,0 -2.301245,-1.41629 -3.027976,-4.11129 -0.546276,-2.0258 -0.516552,-2.58671 0.219252,-4.1373 1.525584,-3.21493 4.7855,-4.57584 6.926617,-2.89164 1.235216,0.97162 1.990264,1.03871 11.691355,1.03871 5.848789,0 10.497444,-0.20482 10.661167,-0.46973 0.381266,-0.6169 3.788386,-0.97603 13.845505,-1.4594 7.344674,-0.353 8.348028,-0.50716 8.986207,-1.3807 0.605733,-0.82912 1.46705,-1.01075 5.492604,-1.15825 l 4.774213,-0.17492 1.013057,2.36337 c 1.250049,2.91624 1.271863,4.00346 0.103611,5.16414 -1.66665,1.65586 -2.683258,3.71399 -3.267853,6.61579 -0.972484,4.82718 -0.343048,22.91824 0.846846,24.33984 1.323411,1.581 3.330458,5.5263 3.330458,6.5467 0,0.6815 -0.639594,1.4408 -1.780818,2.1142 -0.979449,0.5779 -2.010224,1.4793 -2.290612,2.0033 -0.885495,1.6545 -3.423402,1.2387 -5.36289,-0.8787 -0.922547,-1.0072 -1.677358,-2.0057 -1.677358,-2.2188 0,-0.5116 -1.323219,-1.0007 -2.706982,-1.0007 -0.610021,0 -1.513198,-0.472 -2.00706,-1.0487 -0.614986,-0.7183 -1.088025,-0.895 -1.501208,-0.5609 -0.331804,0.2684 -3.898903,0.6545 -7.926886,0.8582 -4.027983,0.2036 -8.527938,0.6833 -9.999899,1.0659 -1.595408,0.4147 -5.280011,0.6956 -9.123147,0.6956 -6.404108,0 -6.455852,0.01 -7.804039,1.4166 -0.746453,0.7791 -1.357186,1.6883 -1.357186,2.0203 0,0.3321 -0.188878,0.6037 -0.419729,0.6037 -0.23085,0 -0.713805,0.5495 -1.073232,1.2211 -0.602509,1.1258 -0.93628,1.2171 -4.277387,1.1697 -3.135959,-0.044 -3.739503,-0.2047 -4.482607,-1.1898 l 0,0 z"
       id="path3049-4"
       inkscape:connector-curvature="0" />
    <path
       style="fill:none;stroke:#000000;stroke-width:1px;stroke-linecap:butt;stroke-linejoin:miter;stroke-opacity:1"
       d="m 77.781745,40.401 c 2.188664,0 4.377328,0 6.565992,0 0.122494,0 1.498986,-0.01624 1.515229,0 0.119047,0.119048 0.168358,0.505077 0,0.505077 -0.168359,0 0,-0.336718 0,-0.505077 0,-1.184493 -0.119048,0.238095 0.505076,-1.010152 0.07529,-0.150585 -0.07529,-0.354492 0,-0.505077 0.106479,-0.212958 0.398597,-0.292117 0.505076,-0.505076 0.07529,-0.150584 -0.119047,-0.386028 0,-0.505076 0.673435,-0.673435 0.505077,0.841794 0.505077,-0.505076 0,-0.168359 0,-0.336718 0,-0.505077 0,-0.168358 -0.119048,-0.386028 0,-0.505076 0.119047,-0.119048 0.354491,0.07529 0.505076,0 0.212959,-0.106479 0.292117,-0.398597 0.505076,-0.505076 0.130588,-0.06529 2.672459,0 3.030458,0 0.168358,0 0.336717,0 0.505076,0 0.168359,0 0.505076,-0.168359 0.505076,0 0,0.168359 -0.673435,0 -0.505076,0 0.336717,0 0.690714,-0.10648 1.010153,0 0.225876,0.07529 0.398596,0.292117 0.505076,0.505076 0.07686,0.153712 0,1.287764 0,1.515229 0,1.178511 0,2.357022 0,3.535534 0,0.168359 0,0.336717 0,0.505076 0,0.168359 0.119047,0.386029 0,0.505076 -0.119048,0.119048 -0.354492,-0.07529 -0.505076,0 -1.116752,0.558376 -0.156737,0.313472 -0.505077,1.010153 -1.051003,2.102006 0.03487,-0.539945 -1.010152,0.505076 -0.119048,0.119048 0.119047,0.386029 0,0.505076 -0.02032,0.02032 -1.834823,0 -2.020305,0 -0.168359,0 -0.336718,0 -0.505077,0 -0.168358,0 -0.505076,0.168359 -0.505076,0 0,-0.168358 0.336718,0 0.505076,0 0.505077,0 1.010153,0 1.515229,0 0.336718,0 0.673435,0 1.010153,0 0.168358,0 0.505076,-0.168358 0.505076,0 0,0.168359 -0.505076,-0.168358 -0.505076,0 0,1.051004 0.708303,0.203227 1.010152,0.505077 0.119048,0.119047 0,0.336717 0,0.505076 0,1.010152 0,2.020305 0,3.030458 0,2.862098 0,-3.367176 0,-0.505077 0,1.010153 0,2.020305 0,3.030458 0,0.505076 0,1.010152 0,1.515229 0,0.168358 0.168359,0.505076 0,0.505076 -0.168359,0 0.119048,-0.624124 0,-0.505076 -0.615174,0.615174 -0.236589,1.128447 -1.010152,1.515229 -0.132806,0.0664 -1.756191,0 -2.020305,0 -0.264115,0 -1.8875,0.0664 -2.020305,0 -0.212959,-0.10648 -0.398597,-0.292118 -0.505077,-0.505077 -0.09133,-0.182652 0,-2.17408 0,-2.525381 0,-0.168359 0.07529,-0.354492 0,-0.505076 -0.106479,-0.212959 -0.398597,-0.292118 -0.505076,-0.505077 -0.07529,-0.150584 0.119048,-0.386028 0,-0.505076 -0.119048,-0.119048 -0.505076,-0.168359 -0.505076,0 0,0.238095 0.505076,0.743172 0.505076,0.505076 0,-0.376461 -0.238878,-0.743954 -0.505076,-1.010152 -0.120927,-0.120927 -2.020305,0.114817 -2.020305,0 0,-0.168359 0.624124,-0.119048 0.505076,0 -0.580369,0.580368 -0.89324,0.505076 -1.515229,0.505076 -0.841794,0 -1.683587,0 -2.525381,0 -0.168359,0 -0.386029,-0.119048 -0.505076,0 -0.119048,0.119048 0.119047,0.386029 0,0.505076 -0.119048,0.119048 -0.336718,0 -0.505077,0 -0.168359,0 -0.336717,0 -0.505076,0 -0.336718,0 -0.673435,0 -1.010153,0 -0.168358,0 -0.505076,0.168359 -0.505076,0 0,-0.336717 1.010153,0.336718 1.010153,0 0,-0.238095 -0.336718,-0.336717 -0.505077,-0.505076"
       id="path3123"
       inkscape:connector-curvature="0" />
  </g>
</svg>
